<mxfile host="app.diagrams.net" modified="2020-12-09T08:36:33.133Z" agent="5.0 (Macintosh; Intel Mac OS X 10_15_6) AppleWebKit/605.1.15 (KHTML, like Gecko) Version/14.0.1 Safari/605.1.15" etag="zQCiYysSOO-nQeMOGfY_" version="13.8.4" type="github">
  <diagram id="lMXUwMrnGt_jb4IuppMa" name="Страница 1">
    <mxGraphModel dx="1186" dy="645" grid="1" gridSize="10" guides="1" tooltips="1" connect="1" arrows="1" fold="1" page="1" pageScale="1" pageWidth="827" pageHeight="1169" math="0" shadow="0">
      <root>
        <mxCell id="0" />
        <mxCell id="1" parent="0" />
        <mxCell id="2xwiagyW3Ui9pZfuHzn_-1" value="Посетитель&lt;br&gt;сайта" style="shape=umlActor;verticalLabelPosition=bottom;verticalAlign=top;html=1;outlineConnect=0;" vertex="1" parent="1">
          <mxGeometry x="40" width="40" height="79" as="geometry" />
        </mxCell>
        <mxCell id="2xwiagyW3Ui9pZfuHzn_-4" value="" style="endArrow=none;dashed=1;html=1;" edge="1" parent="1" source="2xwiagyW3Ui9pZfuHzn_-61">
          <mxGeometry width="50" height="50" relative="1" as="geometry">
            <mxPoint x="60" y="110" as="sourcePoint" />
            <mxPoint x="60" y="850" as="targetPoint" />
          </mxGeometry>
        </mxCell>
        <mxCell id="2xwiagyW3Ui9pZfuHzn_-6" value="" style="endArrow=classic;html=1;" edge="1" parent="1">
          <mxGeometry width="50" height="50" relative="1" as="geometry">
            <mxPoint x="60" y="139.5" as="sourcePoint" />
            <mxPoint x="80" y="150" as="targetPoint" />
            <Array as="points">
              <mxPoint x="130" y="140" />
              <mxPoint x="130" y="150" />
            </Array>
          </mxGeometry>
        </mxCell>
        <mxCell id="2xwiagyW3Ui9pZfuHzn_-7" value="" style="rounded=0;whiteSpace=wrap;html=1;" vertex="1" parent="1">
          <mxGeometry x="50" y="120" width="20" height="40" as="geometry" />
        </mxCell>
        <mxCell id="2xwiagyW3Ui9pZfuHzn_-8" value="" style="endArrow=none;dashed=1;html=1;" edge="1" parent="1" target="2xwiagyW3Ui9pZfuHzn_-7">
          <mxGeometry width="50" height="50" relative="1" as="geometry">
            <mxPoint x="60" y="110" as="sourcePoint" />
            <mxPoint x="60" y="520" as="targetPoint" />
          </mxGeometry>
        </mxCell>
        <mxCell id="2xwiagyW3Ui9pZfuHzn_-9" value="Просмотр &lt;br&gt;сайта" style="text;html=1;align=center;verticalAlign=middle;resizable=0;points=[];autosize=1;" vertex="1" parent="1">
          <mxGeometry x="100" y="110" width="70" height="30" as="geometry" />
        </mxCell>
        <mxCell id="2xwiagyW3Ui9pZfuHzn_-11" value="" style="rounded=0;whiteSpace=wrap;html=1;" vertex="1" parent="1">
          <mxGeometry x="50" y="200" width="20" height="60" as="geometry" />
        </mxCell>
        <mxCell id="2xwiagyW3Ui9pZfuHzn_-12" value="" style="endArrow=none;dashed=1;html=1;" edge="1" parent="1" source="2xwiagyW3Ui9pZfuHzn_-7" target="2xwiagyW3Ui9pZfuHzn_-11">
          <mxGeometry width="50" height="50" relative="1" as="geometry">
            <mxPoint x="60" y="160" as="sourcePoint" />
            <mxPoint x="60" y="520" as="targetPoint" />
          </mxGeometry>
        </mxCell>
        <mxCell id="2xwiagyW3Ui9pZfuHzn_-13" value="Сайт &lt;br&gt;музея-галереи&amp;nbsp;" style="rounded=0;whiteSpace=wrap;html=1;" vertex="1" parent="1">
          <mxGeometry x="220" y="19" width="120" height="60" as="geometry" />
        </mxCell>
        <mxCell id="2xwiagyW3Ui9pZfuHzn_-14" value="" style="endArrow=none;dashed=1;html=1;" edge="1" parent="1" source="2xwiagyW3Ui9pZfuHzn_-16">
          <mxGeometry width="50" height="50" relative="1" as="geometry">
            <mxPoint x="280" y="520" as="sourcePoint" />
            <mxPoint x="280" y="80" as="targetPoint" />
          </mxGeometry>
        </mxCell>
        <mxCell id="2xwiagyW3Ui9pZfuHzn_-15" value="" style="endArrow=classic;html=1;exitX=1;exitY=0.5;exitDx=0;exitDy=0;entryX=0;entryY=0.5;entryDx=0;entryDy=0;" edge="1" parent="1" source="2xwiagyW3Ui9pZfuHzn_-11" target="2xwiagyW3Ui9pZfuHzn_-16">
          <mxGeometry width="50" height="50" relative="1" as="geometry">
            <mxPoint x="390" y="330" as="sourcePoint" />
            <mxPoint x="240" y="230" as="targetPoint" />
          </mxGeometry>
        </mxCell>
        <mxCell id="2xwiagyW3Ui9pZfuHzn_-16" value="" style="rounded=0;whiteSpace=wrap;html=1;" vertex="1" parent="1">
          <mxGeometry x="270" y="200" width="20" height="60" as="geometry" />
        </mxCell>
        <mxCell id="2xwiagyW3Ui9pZfuHzn_-17" value="" style="endArrow=none;dashed=1;html=1;" edge="1" parent="1" source="2xwiagyW3Ui9pZfuHzn_-19" target="2xwiagyW3Ui9pZfuHzn_-16">
          <mxGeometry width="50" height="50" relative="1" as="geometry">
            <mxPoint x="280" y="520" as="sourcePoint" />
            <mxPoint x="280" y="80" as="targetPoint" />
          </mxGeometry>
        </mxCell>
        <mxCell id="2xwiagyW3Ui9pZfuHzn_-18" value="Покупка билетов на &lt;br&gt;посещение музея офлайн&amp;nbsp;" style="text;html=1;align=center;verticalAlign=middle;resizable=0;points=[];autosize=1;" vertex="1" parent="1">
          <mxGeometry x="90" y="195" width="170" height="30" as="geometry" />
        </mxCell>
        <mxCell id="2xwiagyW3Ui9pZfuHzn_-19" value="" style="rounded=0;whiteSpace=wrap;html=1;" vertex="1" parent="1">
          <mxGeometry x="270" y="290" width="20" height="40" as="geometry" />
        </mxCell>
        <mxCell id="2xwiagyW3Ui9pZfuHzn_-20" value="" style="endArrow=none;dashed=1;html=1;" edge="1" parent="1" source="2xwiagyW3Ui9pZfuHzn_-32" target="2xwiagyW3Ui9pZfuHzn_-19">
          <mxGeometry width="50" height="50" relative="1" as="geometry">
            <mxPoint x="280" y="520" as="sourcePoint" />
            <mxPoint x="280" y="260" as="targetPoint" />
          </mxGeometry>
        </mxCell>
        <mxCell id="2xwiagyW3Ui9pZfuHzn_-21" value="" style="rounded=0;whiteSpace=wrap;html=1;" vertex="1" parent="1">
          <mxGeometry x="50" y="290" width="20" height="40" as="geometry" />
        </mxCell>
        <mxCell id="2xwiagyW3Ui9pZfuHzn_-22" value="" style="endArrow=none;dashed=1;html=1;" edge="1" parent="1" source="2xwiagyW3Ui9pZfuHzn_-11" target="2xwiagyW3Ui9pZfuHzn_-21">
          <mxGeometry width="50" height="50" relative="1" as="geometry">
            <mxPoint x="60" y="260" as="sourcePoint" />
            <mxPoint x="60" y="520" as="targetPoint" />
          </mxGeometry>
        </mxCell>
        <mxCell id="2xwiagyW3Ui9pZfuHzn_-23" value="" style="endArrow=classic;html=1;exitX=0;exitY=0.5;exitDx=0;exitDy=0;entryX=1;entryY=0.5;entryDx=0;entryDy=0;" edge="1" parent="1" source="2xwiagyW3Ui9pZfuHzn_-19" target="2xwiagyW3Ui9pZfuHzn_-21">
          <mxGeometry width="50" height="50" relative="1" as="geometry">
            <mxPoint x="390" y="330" as="sourcePoint" />
            <mxPoint x="440" y="280" as="targetPoint" />
          </mxGeometry>
        </mxCell>
        <mxCell id="2xwiagyW3Ui9pZfuHzn_-24" value="Предоставление выбора даты,&lt;br&gt;&amp;nbsp;времени,&lt;br&gt;&amp;nbsp;группы и экскурсовода" style="text;html=1;align=center;verticalAlign=middle;resizable=0;points=[];autosize=1;" vertex="1" parent="1">
          <mxGeometry x="70" y="260" width="190" height="50" as="geometry" />
        </mxCell>
        <mxCell id="2xwiagyW3Ui9pZfuHzn_-25" value="" style="rounded=0;whiteSpace=wrap;html=1;" vertex="1" parent="1">
          <mxGeometry x="50" y="360" width="20" height="50" as="geometry" />
        </mxCell>
        <mxCell id="2xwiagyW3Ui9pZfuHzn_-26" value="" style="endArrow=none;dashed=1;html=1;" edge="1" parent="1" source="2xwiagyW3Ui9pZfuHzn_-21" target="2xwiagyW3Ui9pZfuHzn_-25">
          <mxGeometry width="50" height="50" relative="1" as="geometry">
            <mxPoint x="60" y="330" as="sourcePoint" />
            <mxPoint x="60" y="520" as="targetPoint" />
          </mxGeometry>
        </mxCell>
        <mxCell id="2xwiagyW3Ui9pZfuHzn_-27" value="" style="endArrow=classic;html=1;" edge="1" parent="1">
          <mxGeometry width="50" height="50" relative="1" as="geometry">
            <mxPoint x="70" y="379.75" as="sourcePoint" />
            <mxPoint x="90" y="390.25" as="targetPoint" />
            <Array as="points">
              <mxPoint x="140" y="380.25" />
              <mxPoint x="140" y="390.25" />
            </Array>
          </mxGeometry>
        </mxCell>
        <mxCell id="2xwiagyW3Ui9pZfuHzn_-28" value="Просмотр действующих &lt;br&gt;экскурсоводов&amp;nbsp;" style="text;html=1;align=center;verticalAlign=middle;resizable=0;points=[];autosize=1;" vertex="1" parent="1">
          <mxGeometry x="70" y="350" width="150" height="30" as="geometry" />
        </mxCell>
        <mxCell id="2xwiagyW3Ui9pZfuHzn_-30" value="" style="rounded=0;whiteSpace=wrap;html=1;" vertex="1" parent="1">
          <mxGeometry x="50" y="440" width="20" height="50" as="geometry" />
        </mxCell>
        <mxCell id="2xwiagyW3Ui9pZfuHzn_-31" value="" style="endArrow=none;dashed=1;html=1;" edge="1" parent="1" source="2xwiagyW3Ui9pZfuHzn_-25" target="2xwiagyW3Ui9pZfuHzn_-30">
          <mxGeometry width="50" height="50" relative="1" as="geometry">
            <mxPoint x="60" y="410" as="sourcePoint" />
            <mxPoint x="60" y="520" as="targetPoint" />
          </mxGeometry>
        </mxCell>
        <mxCell id="2xwiagyW3Ui9pZfuHzn_-32" value="" style="rounded=0;whiteSpace=wrap;html=1;" vertex="1" parent="1">
          <mxGeometry x="270" y="440" width="20" height="50" as="geometry" />
        </mxCell>
        <mxCell id="2xwiagyW3Ui9pZfuHzn_-33" value="" style="endArrow=none;dashed=1;html=1;" edge="1" parent="1" source="2xwiagyW3Ui9pZfuHzn_-36" target="2xwiagyW3Ui9pZfuHzn_-32">
          <mxGeometry width="50" height="50" relative="1" as="geometry">
            <mxPoint x="280" y="724" as="sourcePoint" />
            <mxPoint x="280" y="330" as="targetPoint" />
          </mxGeometry>
        </mxCell>
        <mxCell id="2xwiagyW3Ui9pZfuHzn_-34" value="" style="endArrow=classic;html=1;exitX=1;exitY=0.5;exitDx=0;exitDy=0;entryX=0;entryY=0.5;entryDx=0;entryDy=0;" edge="1" parent="1" source="2xwiagyW3Ui9pZfuHzn_-30" target="2xwiagyW3Ui9pZfuHzn_-32">
          <mxGeometry width="50" height="50" relative="1" as="geometry">
            <mxPoint x="390" y="330" as="sourcePoint" />
            <mxPoint x="440" y="280" as="targetPoint" />
          </mxGeometry>
        </mxCell>
        <mxCell id="2xwiagyW3Ui9pZfuHzn_-35" value="Внесение в соответсвующие поля, &lt;br&gt;выбранных дат, времени, &lt;br&gt;группы и экскурсовода&amp;nbsp;" style="text;html=1;align=center;verticalAlign=middle;resizable=0;points=[];autosize=1;" vertex="1" parent="1">
          <mxGeometry x="65" y="410" width="220" height="50" as="geometry" />
        </mxCell>
        <mxCell id="2xwiagyW3Ui9pZfuHzn_-36" value="" style="rounded=0;whiteSpace=wrap;html=1;" vertex="1" parent="1">
          <mxGeometry x="270" y="520" width="20" height="40" as="geometry" />
        </mxCell>
        <mxCell id="2xwiagyW3Ui9pZfuHzn_-37" value="" style="endArrow=none;dashed=1;html=1;" edge="1" parent="1" source="2xwiagyW3Ui9pZfuHzn_-41" target="2xwiagyW3Ui9pZfuHzn_-36">
          <mxGeometry width="50" height="50" relative="1" as="geometry">
            <mxPoint x="280" y="724" as="sourcePoint" />
            <mxPoint x="280" y="490" as="targetPoint" />
          </mxGeometry>
        </mxCell>
        <mxCell id="2xwiagyW3Ui9pZfuHzn_-38" value="" style="endArrow=classic;html=1;" edge="1" parent="1">
          <mxGeometry width="50" height="50" relative="1" as="geometry">
            <mxPoint x="290" y="530" as="sourcePoint" />
            <mxPoint x="310" y="540.5" as="targetPoint" />
            <Array as="points">
              <mxPoint x="360" y="530.5" />
              <mxPoint x="360" y="540.5" />
            </Array>
          </mxGeometry>
        </mxCell>
        <mxCell id="2xwiagyW3Ui9pZfuHzn_-39" value="Прием закакза" style="text;html=1;align=center;verticalAlign=middle;resizable=0;points=[];autosize=1;" vertex="1" parent="1">
          <mxGeometry x="285" y="500" width="100" height="20" as="geometry" />
        </mxCell>
        <mxCell id="2xwiagyW3Ui9pZfuHzn_-41" value="" style="rounded=0;whiteSpace=wrap;html=1;" vertex="1" parent="1">
          <mxGeometry x="270" y="585" width="20" height="40" as="geometry" />
        </mxCell>
        <mxCell id="2xwiagyW3Ui9pZfuHzn_-42" value="" style="endArrow=none;dashed=1;html=1;" edge="1" parent="1" source="2xwiagyW3Ui9pZfuHzn_-55" target="2xwiagyW3Ui9pZfuHzn_-41">
          <mxGeometry width="50" height="50" relative="1" as="geometry">
            <mxPoint x="280" y="840" as="sourcePoint" />
            <mxPoint x="280" y="560" as="targetPoint" />
          </mxGeometry>
        </mxCell>
        <mxCell id="2xwiagyW3Ui9pZfuHzn_-43" value="" style="endArrow=classic;html=1;" edge="1" parent="1">
          <mxGeometry width="50" height="50" relative="1" as="geometry">
            <mxPoint x="290" y="599.75" as="sourcePoint" />
            <mxPoint x="310" y="610.25" as="targetPoint" />
            <Array as="points">
              <mxPoint x="360" y="600.25" />
              <mxPoint x="360" y="610.25" />
            </Array>
          </mxGeometry>
        </mxCell>
        <mxCell id="2xwiagyW3Ui9pZfuHzn_-44" value="Внесение в БД" style="text;html=1;align=center;verticalAlign=middle;resizable=0;points=[];autosize=1;" vertex="1" parent="1">
          <mxGeometry x="290" y="575" width="100" height="20" as="geometry" />
        </mxCell>
        <mxCell id="2xwiagyW3Ui9pZfuHzn_-51" style="edgeStyle=orthogonalEdgeStyle;rounded=0;orthogonalLoop=1;jettySize=auto;html=1;exitX=0;exitY=0.5;exitDx=0;exitDy=0;entryX=1;entryY=0.5;entryDx=0;entryDy=0;" edge="1" parent="1" source="2xwiagyW3Ui9pZfuHzn_-46" target="2xwiagyW3Ui9pZfuHzn_-49">
          <mxGeometry relative="1" as="geometry" />
        </mxCell>
        <mxCell id="2xwiagyW3Ui9pZfuHzn_-46" value="" style="rounded=0;whiteSpace=wrap;html=1;" vertex="1" parent="1">
          <mxGeometry x="270" y="650" width="20" height="40" as="geometry" />
        </mxCell>
        <mxCell id="2xwiagyW3Ui9pZfuHzn_-49" value="" style="rounded=0;whiteSpace=wrap;html=1;" vertex="1" parent="1">
          <mxGeometry x="50" y="650" width="20" height="40" as="geometry" />
        </mxCell>
        <mxCell id="2xwiagyW3Ui9pZfuHzn_-50" value="" style="endArrow=none;dashed=1;html=1;" edge="1" parent="1" source="2xwiagyW3Ui9pZfuHzn_-30" target="2xwiagyW3Ui9pZfuHzn_-49">
          <mxGeometry width="50" height="50" relative="1" as="geometry">
            <mxPoint x="60" y="490" as="sourcePoint" />
            <mxPoint x="60" y="720" as="targetPoint" />
          </mxGeometry>
        </mxCell>
        <mxCell id="2xwiagyW3Ui9pZfuHzn_-52" value="Предоставление формы &lt;br&gt;для оплаты заказа" style="text;html=1;align=center;verticalAlign=middle;resizable=0;points=[];autosize=1;" vertex="1" parent="1">
          <mxGeometry x="95" y="640" width="160" height="30" as="geometry" />
        </mxCell>
        <mxCell id="2xwiagyW3Ui9pZfuHzn_-57" style="edgeStyle=orthogonalEdgeStyle;rounded=0;orthogonalLoop=1;jettySize=auto;html=1;exitX=1;exitY=0.5;exitDx=0;exitDy=0;" edge="1" parent="1" source="2xwiagyW3Ui9pZfuHzn_-53" target="2xwiagyW3Ui9pZfuHzn_-55">
          <mxGeometry relative="1" as="geometry" />
        </mxCell>
        <mxCell id="2xwiagyW3Ui9pZfuHzn_-53" value="" style="rounded=0;whiteSpace=wrap;html=1;" vertex="1" parent="1">
          <mxGeometry x="50" y="720" width="20" height="40" as="geometry" />
        </mxCell>
        <mxCell id="2xwiagyW3Ui9pZfuHzn_-54" value="" style="endArrow=none;dashed=1;html=1;" edge="1" parent="1" source="2xwiagyW3Ui9pZfuHzn_-49" target="2xwiagyW3Ui9pZfuHzn_-53">
          <mxGeometry width="50" height="50" relative="1" as="geometry">
            <mxPoint x="60" y="690" as="sourcePoint" />
            <mxPoint x="60" y="850" as="targetPoint" />
          </mxGeometry>
        </mxCell>
        <mxCell id="2xwiagyW3Ui9pZfuHzn_-55" value="" style="rounded=0;whiteSpace=wrap;html=1;" vertex="1" parent="1">
          <mxGeometry x="270" y="720" width="20" height="40" as="geometry" />
        </mxCell>
        <mxCell id="2xwiagyW3Ui9pZfuHzn_-56" value="" style="endArrow=none;dashed=1;html=1;" edge="1" parent="1" source="2xwiagyW3Ui9pZfuHzn_-59" target="2xwiagyW3Ui9pZfuHzn_-55">
          <mxGeometry width="50" height="50" relative="1" as="geometry">
            <mxPoint x="280" y="840" as="sourcePoint" />
            <mxPoint x="280" y="625" as="targetPoint" />
          </mxGeometry>
        </mxCell>
        <mxCell id="2xwiagyW3Ui9pZfuHzn_-58" value="Оплата заказа" style="text;html=1;align=center;verticalAlign=middle;resizable=0;points=[];autosize=1;" vertex="1" parent="1">
          <mxGeometry x="115" y="720" width="100" height="20" as="geometry" />
        </mxCell>
        <mxCell id="2xwiagyW3Ui9pZfuHzn_-63" style="edgeStyle=orthogonalEdgeStyle;rounded=0;orthogonalLoop=1;jettySize=auto;html=1;exitX=0;exitY=0.5;exitDx=0;exitDy=0;entryX=1;entryY=0.5;entryDx=0;entryDy=0;" edge="1" parent="1" source="2xwiagyW3Ui9pZfuHzn_-59" target="2xwiagyW3Ui9pZfuHzn_-61">
          <mxGeometry relative="1" as="geometry" />
        </mxCell>
        <mxCell id="2xwiagyW3Ui9pZfuHzn_-59" value="" style="rounded=0;whiteSpace=wrap;html=1;" vertex="1" parent="1">
          <mxGeometry x="270" y="780" width="20" height="40" as="geometry" />
        </mxCell>
        <mxCell id="2xwiagyW3Ui9pZfuHzn_-60" value="" style="endArrow=none;dashed=1;html=1;" edge="1" parent="1" target="2xwiagyW3Ui9pZfuHzn_-59">
          <mxGeometry width="50" height="50" relative="1" as="geometry">
            <mxPoint x="280" y="840" as="sourcePoint" />
            <mxPoint x="280" y="760" as="targetPoint" />
          </mxGeometry>
        </mxCell>
        <mxCell id="2xwiagyW3Ui9pZfuHzn_-61" value="" style="rounded=0;whiteSpace=wrap;html=1;" vertex="1" parent="1">
          <mxGeometry x="50" y="780" width="20" height="40" as="geometry" />
        </mxCell>
        <mxCell id="2xwiagyW3Ui9pZfuHzn_-62" value="" style="endArrow=none;dashed=1;html=1;" edge="1" parent="1" source="2xwiagyW3Ui9pZfuHzn_-53" target="2xwiagyW3Ui9pZfuHzn_-61">
          <mxGeometry width="50" height="50" relative="1" as="geometry">
            <mxPoint x="60" y="760" as="sourcePoint" />
            <mxPoint x="60" y="850" as="targetPoint" />
          </mxGeometry>
        </mxCell>
        <mxCell id="2xwiagyW3Ui9pZfuHzn_-64" value="Отправка билета &lt;br&gt;на почту покупателя" style="text;html=1;align=center;verticalAlign=middle;resizable=0;points=[];autosize=1;" vertex="1" parent="1">
          <mxGeometry x="110" y="770" width="130" height="30" as="geometry" />
        </mxCell>
      </root>
    </mxGraphModel>
  </diagram>
</mxfile>
